<?xml version="1.0" standalone="no"?>
<!DOCTYPE svg PUBLIC "-//W3C//DTD SVG 20010904//EN"
 "http://www.w3.org/TR/2001/REC-SVG-20010904/DTD/svg10.dtd">
<svg version="1.0" xmlns="http://www.w3.org/2000/svg"
 width="640.000000pt" height="640.000000pt" viewBox="0 0 640.000000 640.000000"
 preserveAspectRatio="xMidYMid meet">
<metadata>
Created by potrace 1.14, written by Peter Selinger 2001-2017
</metadata>
<g transform="translate(0.000000,640.000000) scale(0.100000,-0.100000)"
fill="#000000" stroke="none">
<path d="M0 5920 l0 -480 24 0 c14 0 28 5 31 10 4 6 15 8 25 5 23 -7 96 13
111 32 6 7 28 13 49 13 84 0 98 8 115 65 13 45 20 55 46 64 45 16 69 14 106
-9 22 -13 35 -31 43 -60 l11 -40 57 -1 c31 -1 62 -2 69 -3 7 0 28 -18 48 -39
41 -43 43 -76 8 -92 -13 -5 -25 -16 -28 -23 -2 -7 -1 -11 4 -8 13 9 72 -14
109 -41 28 -21 32 -30 27 -52 -4 -20 0 -32 14 -45 11 -10 23 -31 26 -47 7 -30
20 -38 28 -16 3 6 6 -6 6 -28 2 -83 17 -101 71 -85 38 11 105 -12 120 -41 6
-10 10 -42 10 -73 0 -30 3 -61 6 -70 9 -24 24 -19 24 8 0 14 5 28 11 32 8 5
10 -3 5 -27 -13 -70 -19 -229 -8 -229 6 0 13 10 15 23 4 19 4 19 6 -5 1 -29
-38 -68 -69 -68 -10 0 -23 -7 -30 -15 -9 -10 -9 -15 -1 -15 18 0 12 -35 -9
-50 -23 -17 -27 -40 -6 -40 7 0 19 -7 26 -15 7 -8 16 -13 20 -10 14 9 20 -42
11 -90 -10 -51 -18 -60 -71 -75 -50 -14 -58 -13 -85 15 l-25 24 0 -37 c0 -32
-4 -39 -32 -51 -18 -8 -36 -18 -39 -23 -3 -4 -14 -2 -25 6 -18 14 -18 15 -1
33 15 16 19 16 27 3 7 -11 10 -3 10 28 0 38 2 42 25 42 23 0 25 4 25 40 0 33
-3 40 -20 40 -11 0 -20 5 -20 10 0 15 50 12 51 -2 0 -7 5 2 10 21 6 18 8 36 5
39 -3 3 -6 -1 -6 -9 0 -11 -10 -14 -40 -11 -38 4 -40 3 -40 -23 0 -24 -2 -26
-17 -14 -12 11 -17 11 -20 2 -3 -9 -11 -8 -29 3 -22 15 -24 15 -30 0 -3 -9 -3
-24 1 -33 8 -17 8 -17 12 0 5 18 23 24 23 7 0 -5 9 -10 20 -10 26 0 25 -8 -2
-32 -17 -15 -19 -21 -9 -27 8 -5 11 -17 6 -30 -7 -23 -31 -28 -38 -8 -6 16
-36 -21 -37 -46 0 -9 -11 -22 -24 -29 -26 -11 -41 -36 -30 -47 4 -3 9 0 11 7
7 19 70 4 100 -24 24 -22 24 -25 14 -75 -15 -70 -25 -79 -82 -79 -51 0 -85 21
-74 48 3 8 1 20 -5 27 -7 8 -5 25 5 55 9 26 13 57 9 81 -8 45 -23 52 -26 12
-1 -16 -2 -36 -3 -45 0 -9 -4 -20 -8 -24 -4 -4 -7 -20 -7 -36 0 -15 -4 -28 -9
-28 -5 0 -12 -18 -16 -40 -6 -37 -14 -45 -39 -41 -5 1 -13 -4 -19 -11 -6 -9
-7 -8 -3 5 4 12 -2 21 -19 29 -14 6 -28 23 -31 37 -11 50 -58 186 -68 198 -15
16 -81 20 -98 5 -8 -6 -18 -9 -21 -5 -4 3 -7 2 -8 -3 0 -5 -1 -53 -3 -106 -3
-107 -10 -129 -24 -77 l-9 34 -7 -30 c-19 -77 -55 -102 -129 -91 -47 8 -100
56 -91 81 4 10 0 15 -11 15 -11 0 -15 5 -11 15 3 9 0 15 -9 15 -13 0 -15 -39
-15 -265 l0 -265 23 10 c96 39 339 69 392 47 19 -8 19 -9 2 -22 -16 -12 -16
-13 7 -19 19 -5 27 -15 32 -41 3 -19 10 -33 14 -30 4 2 5 -7 2 -20 -2 -14 1
-37 7 -53 6 -15 12 -46 13 -70 1 -24 5 -38 8 -31 4 6 10 -17 13 -52 3 -35 13
-107 22 -159 9 -52 19 -109 22 -127 5 -30 6 -31 27 -19 11 8 35 17 53 21 30 6
32 9 27 38 -3 18 -10 45 -15 61 -5 16 -9 42 -9 57 0 15 -7 54 -16 86 -16 59
-22 91 -47 247 -18 111 -12 126 51 126 26 0 41 4 37 10 -4 6 20 10 64 10 38 0
73 5 76 10 3 6 27 10 53 11 38 1 42 2 22 9 -17 5 -19 8 -7 9 24 1 82 60 80 80
-1 9 0 11 3 4 3 -8 25 -13 54 -13 26 0 64 -7 83 -15 41 -17 112 -21 87 -5 -12
8 -8 10 15 12 53 3 77 -1 94 -16 11 -10 43 -16 101 -18 l85 -3 3 -65 c4 -70
26 -114 36 -69 3 13 8 50 11 82 6 54 25 82 25 35 0 -13 11 -72 24 -133 14 -60
30 -139 36 -175 14 -82 46 -173 78 -225 36 -57 62 -72 62 -35 0 30 17 24 29
-11 11 -33 38 -35 33 -3 -5 33 -5 38 -4 87 2 55 14 61 32 15 30 -82 28 -80 51
-68 56 31 137 108 166 161 l27 48 21 -47 c38 -89 122 -218 134 -207 3 3 1 9
-5 13 -5 4 -17 25 -26 47 -37 88 -32 109 13 57 13 -15 37 -38 54 -51 24 -18
30 -20 35 -7 4 11 16 5 50 -26 67 -60 160 -128 176 -128 9 0 1 18 -22 51 -73
101 -152 330 -140 405 2 16 5 33 5 39 1 5 6 4 12 -2 6 -6 17 -9 24 -7 10 4 71
-70 110 -134 1 -1 10 0 19 4 9 3 16 17 16 32 0 20 3 23 12 14 35 -35 54 21 22
66 -14 21 -14 23 11 32 34 13 100 13 146 0 27 -8 39 -17 43 -36 5 -20 12 -25
26 -21 11 3 20 1 20 -4 0 -4 7 -5 17 -2 10 4 14 2 9 -5 -4 -6 3 -12 16 -14 15
-2 25 -12 28 -28 3 -14 15 -44 28 -67 24 -45 28 -68 13 -77 -16 -10 -58 12
-64 33 -3 12 -12 21 -21 21 -9 0 -16 6 -16 13 0 8 -4 7 -10 -3 -15 -22 -12
-28 13 -32 18 -2 22 -9 22 -38 0 -35 0 -35 41 -32 46 4 60 -8 66 -53 2 -25 -1
-31 -21 -33 l-23 -4 21 -14 c28 -20 27 -34 -4 -34 -34 0 -32 -12 5 -28 26 -12
30 -19 30 -53 0 -29 -3 -37 -14 -33 -11 4 -13 0 -9 -16 3 -13 0 -25 -7 -30
-11 -7 -10 -12 3 -25 22 -21 22 -22 -8 -62 l-26 -33 -40 21 c-53 27 -72 22
-80 -21 -8 -39 -3 -52 11 -30 11 17 59 22 78 7 6 -5 12 -20 12 -32 0 -12 7
-28 15 -35 13 -11 19 -9 38 8 15 14 30 19 49 15 25 -5 29 -1 51 48 13 30 30
69 37 87 7 18 17 31 23 29 6 -2 22 -29 35 -61 l25 -58 -18 -51 c-19 -53 -88
-161 -134 -210 -40 -43 -184 -135 -254 -163 -131 -53 -149 -66 -108 -79 32
-10 50 -49 63 -139 14 -100 8 -114 -59 -123 -30 -4 -47 -14 -67 -40 l-28 -35
21 -22 c12 -12 21 -26 21 -30 0 -4 7 -14 15 -23 8 -8 13 -19 10 -24 -4 -5 -1
-9 5 -9 7 0 10 -7 6 -15 -6 -16 30 -55 50 -55 7 0 20 -8 30 -17 10 -10 22 -18
28 -18 5 0 13 -10 16 -23 3 -13 8 -23 13 -22 4 0 22 -17 40 -37 17 -21 40 -45
49 -54 10 -9 18 -21 18 -28 0 -6 5 -11 10 -11 6 0 10 -5 10 -11 0 -9 57 -83
97 -126 6 -7 20 -23 30 -36 10 -12 37 -37 61 -55 23 -19 40 -38 36 -43 -3 -5
2 -9 10 -9 9 0 23 -14 32 -32 9 -17 26 -40 38 -50 l21 -19 -23 6 c-21 6 -23 4
-17 -14 6 -19 3 -21 -39 -21 -25 0 -46 -4 -46 -10 0 -15 -36 -12 -50 5 -18 22
-30 18 -30 -10 0 -25 -14 -33 -25 -15 -3 6 -1 10 6 10 8 0 8 4 -1 16 -21 25
-51 38 -59 25 -5 -7 -14 -6 -29 5 -28 19 -28 34 0 34 20 0 20 1 3 20 -10 11
-25 22 -34 25 -9 2 -21 15 -26 27 -6 13 -24 32 -42 43 -34 21 -42 40 -20 48
10 4 10 7 0 18 -11 11 -13 10 -13 -4 0 -9 -4 -17 -10 -17 -5 0 -10 17 -10 38
0 30 -6 41 -30 57 -26 18 -29 26 -32 80 -3 54 -5 60 -25 63 -19 3 -23 10 -23
40 0 41 -32 74 -53 53 -8 -8 -6 -11 7 -11 11 0 14 -4 9 -12 -4 -7 -8 -21 -8
-30 0 -10 -4 -17 -10 -15 -5 1 -9 10 -7 20 1 11 -3 17 -10 15 -19 -7 -23 -58
-4 -58 23 0 31 -21 12 -32 -22 -12 -10 -31 15 -23 20 7 27 -9 9 -20 -8 -5 -7
-11 0 -20 7 -8 9 -19 5 -25 -3 -5 -2 -10 3 -10 6 0 17 -18 26 -40 9 -22 20
-40 25 -40 13 0 20 -37 10 -47 -9 -9 10 -63 23 -63 3 0 12 -17 19 -37 6 -21
23 -54 35 -73 13 -19 24 -44 24 -56 0 -12 7 -35 15 -50 8 -16 15 -37 15 -46 0
-9 5 -20 10 -23 6 -3 10 -16 10 -28 0 -12 7 -31 15 -41 9 -12 15 -42 15 -73 0
-29 5 -53 10 -53 13 0 13 -217 0 -225 -6 -3 -10 -22 -10 -41 0 -19 -4 -34 -10
-34 -10 0 -90 116 -90 131 0 5 -4 9 -10 9 -5 0 -10 6 -10 13 0 18 -24 67 -32
67 -5 0 -8 6 -8 14 0 25 -41 88 -102 156 -105 119 -194 274 -248 430 -17 49
-25 70 -43 110 -13 29 -16 31 -16 13 -1 -13 2 -23 7 -23 4 0 8 -10 8 -22 2
-37 59 -219 84 -268 38 -75 125 -201 190 -275 62 -70 69 -82 110 -185 12 -30
44 -91 69 -136 57 -97 65 -121 45 -142 -9 -8 -13 -23 -11 -33 3 -12 -13 -34
-54 -71 -32 -29 -59 -57 -59 -62 0 -6 -10 -20 -21 -32 l-21 -23 35 -6 c37 -7
62 -41 87 -122 l13 -43 981 0 982 0 32 42 c18 24 33 55 33 72 3 60 4 64 12 72
14 14 7 24 -17 24 -12 0 -37 14 -55 30 -25 24 -35 28 -50 21 -12 -7 -21 -7
-29 1 -8 8 -22 5 -52 -11 l-42 -22 7 43 c4 24 14 59 22 78 8 19 18 55 24 80 5
25 25 86 43 135 58 152 82 255 54 227 -7 -7 -30 -12 -52 -12 -35 0 -43 5 -58
31 -10 17 -18 38 -18 47 0 15 42 87 59 102 12 10 31 50 31 64 0 12 -160 169
-343 337 -33 30 -65 66 -73 81 -16 31 -18 74 -4 83 19 12 10 25 -32 45 -54 26
-56 25 -19 -6 31 -26 41 -66 20 -80 -8 -4 -10 -29 -6 -71 6 -76 -8 -269 -23
-307 -13 -36 -26 -33 -72 17 -42 44 -218 272 -218 282 0 3 -30 36 -66 73 -36
37 -73 78 -82 91 -19 28 -19 89 -1 155 6 22 11 85 10 139 -2 107 3 125 25 106
9 -7 5 5 -8 29 -22 43 -20 42 -128 60 -44 8 -45 9 -43 42 1 19 2 74 2 122 0
52 4 89 11 93 6 4 32 -10 58 -30 l47 -36 7 78 c3 43 4 107 1 143 -5 69 -2 69
37 -5 9 -17 10 -16 5 8 -10 50 5 48 61 -8 48 -49 84 -69 84 -47 0 4 -11 25
-25 47 -25 41 -32 75 -16 75 6 0 12 -4 16 -9 3 -5 27 -23 54 -39 43 -27 48
-28 44 -11 -3 11 -9 22 -14 25 -5 3 -9 24 -9 47 0 23 -4 59 -9 79 -8 36 3 128
18 157 6 9 17 0 40 -33 17 -26 31 -50 31 -54 0 -4 8 -16 16 -27 15 -18 15 -15
9 45 l-7 65 20 -25 21 -25 2 30 c0 17 4 41 9 55 l7 25 11 -25 c21 -49 67 -107
81 -102 8 3 11 0 7 -7 -4 -6 -3 -11 2 -11 6 0 9 38 7 93 -5 112 18 204 41 172
14 -18 14 -18 14 2 0 11 9 28 19 37 17 16 20 16 28 2 7 -14 12 -14 27 -3 15
11 16 18 5 61 -8 31 -9 76 -5 129 4 45 9 124 10 175 3 115 15 132 58 82 16
-19 29 -28 28 -20 -4 26 0 41 8 36 5 -3 7 30 4 74 -7 116 0 125 51 70 22 -25
38 -37 34 -26 -4 10 -19 64 -33 119 -15 56 -42 144 -61 197 -38 103 -80 255
-94 335 -8 44 -7 52 11 64 22 15 25 32 10 59 -14 26 -39 120 -33 126 3 3 20
-5 37 -18 41 -31 99 -65 72 -42 -11 9 -17 19 -13 22 4 4 2 13 -4 20 -7 9 -5
14 10 19 33 10 25 48 -21 107 -66 82 -79 118 -42 118 8 0 13 3 13 8 -4 25 4
41 25 46 13 3 38 18 55 33 17 16 41 36 53 45 19 14 19 17 4 11 -29 -10 -11 14
25 32 16 9 34 13 39 10 6 -3 7 1 4 9 -4 11 0 16 10 16 12 0 15 6 10 25 -6 25
8 35 21 15 20 -33 205 223 205 285 0 11 5 26 12 33 9 9 7 13 -5 18 -9 3 -15
10 -12 14 3 5 0 12 -6 16 -8 4 -4 11 11 19 22 12 21 12 -21 53 -23 23 -39 42
-34 42 4 0 0 9 -10 20 -10 11 -26 20 -36 20 -11 0 -24 9 -31 20 -7 11 -18 20
-24 20 -7 0 -14 9 -17 20 -3 11 -12 20 -20 20 -9 0 -19 -9 -22 -20 -6 -19 -35
-29 -35 -11 0 4 -19 21 -42 37 -30 21 -37 30 -24 32 11 3 15 10 11 22 -4 12 0
22 11 28 15 9 16 14 4 41 -7 17 -16 31 -20 31 -9 0 -57 47 -90 89 -14 17 -28
31 -33 31 -4 0 -18 9 -30 21 l-22 20 -17 -20 c-9 -12 -21 -21 -27 -21 -12 0
-70 60 -71 73 0 11 85 8 97 -4 7 -7 12 -1 16 20 9 41 1 60 -45 103 -21 20 -38
39 -38 42 0 14 -245 246 -259 246 -6 0 -15 9 -21 20 -6 11 -17 20 -24 20 -7 0
-21 9 -31 20 -18 20 -31 20 -992 20 -786 0 -973 -2 -973 -13 0 -18 -53 -47
-85 -47 -16 0 -38 12 -57 30 l-30 30 -924 0 -924 0 0 -480z m2260 295 c41 -21
57 -88 29 -121 -9 -12 -16 -10 -43 8 -17 12 -46 36 -65 54 l-34 31 22 22 c25
25 51 27 91 6z m300 -285 c0 -5 5 -10 10 -10 6 0 24 -10 40 -21 21 -16 37 -20
62 -16 33 5 157 -17 191 -35 17 -9 24 -38 9 -38 -5 0 -15 -11 -22 -25 -7 -14
-22 -25 -32 -25 -15 0 -18 -8 -18 -51 0 -45 2 -50 20 -44 10 3 28 1 39 -4 14
-8 20 -8 23 1 6 17 38 -79 38 -111 0 -36 -39 -78 -90 -96 l-42 -15 -34 34
c-40 40 -43 73 -15 132 11 21 17 42 14 46 -2 5 3 8 11 8 9 0 16 5 16 10 0 12
-20 13 -39 1 -8 -6 -27 -3 -49 6 -47 19 -99 26 -107 13 -3 -5 -15 -10 -26 -10
-12 0 -19 -7 -19 -19 0 -10 -3 -46 -6 -80 -6 -52 -5 -61 10 -61 25 0 19 -19
-15 -51 -29 -27 -37 -29 -105 -29 -58 0 -76 3 -80 15 -4 9 -14 13 -23 11 -40
-12 -113 -15 -134 -5 -65 30 -68 113 -6 170 21 20 39 35 39 32 0 -2 9 1 20 7
13 7 20 21 20 40 0 17 5 30 11 30 5 0 8 3 5 8 -2 4 7 12 20 19 15 7 24 7 24 1
0 -5 11 4 25 20 14 17 25 35 25 41 0 10 4 12 25 11 3 0 21 15 40 35 53 53 125
84 125 55z m-2344 -23 c23 -20 27 -32 27 -71 0 -37 -5 -52 -28 -76 -32 -33
-41 -35 -94 -19 -81 24 -97 147 -23 176 47 19 89 15 118 -10z m2864 -79 c27
-16 40 -30 40 -45 0 -29 -14 -36 -55 -29 -40 8 -66 55 -45 81 16 19 14 19 60
-7z m-840 -98 c0 -20 -5 -30 -15 -30 -10 0 -15 10 -15 30 0 20 5 30 15 30 10
0 15 -10 15 -30z m-2008 -156 c-3 -25 -7 -32 -13 -23 -13 20 -11 47 4 52 6 3
12 6 12 6 1 1 -1 -15 -3 -35z m2332 -240 c25 -9 0 -34 -33 -34 -15 0 -32 -5
-39 -12 -9 -9 -11 -4 -9 20 2 29 5 32 34 32 17 0 39 -3 47 -6z m-1253 -655 c3
-30 2 -56 -3 -57 -5 -2 -15 -10 -22 -18 -12 -11 -16 -11 -26 1 -15 18 -9 111
8 108 6 -2 12 4 12 13 0 9 6 14 13 12 6 -3 15 -29 18 -59z m-196 -109 c3 -5 1
-10 -4 -10 -6 0 -11 5 -11 10 0 6 2 10 4 10 3 0 8 -4 11 -10z m1592 -837 c-5
-9 18 -34 30 -33 5 1 10 -6 11 -15 4 -18 -5 -17 -67 7 -23 8 -24 9 -5 28 19
18 40 27 31 13z m-2107 -77 c0 -3 -4 -8 -10 -11 -5 -3 -10 -1 -10 4 0 6 5 11
10 11 6 0 10 -2 10 -4z m-74 -134 c21 -34 40 -187 28 -225 -7 -21 -7 -21 -15
-2 l-8 20 -2 -20 c-1 -11 -5 0 -9 25 -4 25 -13 72 -20 106 -18 85 -2 142 26
96z m1485 -235 c-1 -12 -15 -9 -19 4 -3 6 1 10 8 8 6 -3 11 -8 11 -12z m969
-493 c-18 -21 -24 -10 -8 15 7 12 14 17 16 11 2 -6 -2 -17 -8 -26z m53 -15
c-3 -10 -12 -19 -19 -19 -17 0 -18 14 -3 42 13 25 30 7 22 -23z m-83 -34 c-7
-9 -15 -13 -17 -11 -7 7 7 26 19 26 6 0 6 -6 -2 -15z m275 -266 c4 -11 10 -17
14 -15 4 3 16 -28 26 -69 15 -63 16 -81 6 -127 -25 -110 -25 -107 -3 -101 12
3 28 14 38 24 20 23 36 25 28 4 -4 -8 -2 -15 4 -15 6 0 12 6 15 13 3 8 9 6 20
-8 8 -11 13 -23 11 -27 -3 -4 4 -13 16 -20 11 -7 20 -24 20 -38 1 -14 8 -52
16 -85 9 -33 20 -79 25 -102 10 -39 12 -41 35 -33 13 5 24 6 24 2 0 -5 7 -17
15 -28 13 -17 15 -13 15 51 2 119 1 138 -8 208 -7 57 -6 70 6 75 15 5 46 -27
62 -66 6 -13 7 -47 4 -75 -13 -112 28 -319 76 -386 11 -16 20 -35 20 -43 0
-11 -88 -68 -105 -68 -3 0 -5 64 -5 143 -1 125 -2 140 -15 123 -10 -13 -11
-24 -5 -37 11 -20 13 -92 4 -126 -5 -18 -10 -21 -24 -13 -20 11 -30 4 -30 -22
0 -24 -26 -23 -33 2 -3 11 -10 20 -17 20 -7 0 -14 -9 -17 -20 -3 -11 -14 -20
-24 -20 -23 0 -26 -45 -7 -97 10 -29 10 -36 -2 -43 -8 -5 -15 -15 -15 -22 -1
-7 -6 -12 -13 -11 -15 4 -35 -34 -38 -72 -5 -56 -9 -70 -24 -77 -12 -5 -12 -7
3 -7 27 -1 20 -21 -8 -21 -14 0 -25 4 -25 9 0 5 -11 12 -25 15 -14 4 -25 11
-25 17 0 6 -4 7 -10 4 -12 -8 -59 26 -60 43 0 6 -9 12 -20 12 -11 0 -20 7 -20
15 0 8 -6 15 -13 15 -20 0 -110 97 -95 102 10 4 9 17 -4 59 -9 30 -20 72 -24
94 -10 54 -32 105 -45 105 -8 0 -10 -21 -5 -68 4 -38 4 -76 1 -85 -6 -15 -8
-15 -25 1 -9 9 -21 28 -25 42 -4 14 -13 39 -20 55 -51 117 -54 158 -15 200 10
11 45 76 78 145 86 181 89 188 111 269 15 54 29 83 50 102 16 14 39 45 50 67
22 43 45 48 56 11z m528 -1008 c-5 -3 -10 -24 -10 -46 -2 -40 -28 -153 -38
-163 -10 -10 -5 44 10 98 8 30 15 78 15 107 0 28 5 55 10 58 6 3 11 18 12 33
1 15 3 3 5 -27 2 -30 0 -57 -4 -60z m165 -157 c4 -38 -18 -59 -53 -50 -18 5
-25 13 -25 30 0 45 10 57 44 54 27 -3 31 -7 34 -34z m-242 -143 c-9 -10 -13
-22 -9 -26 5 -5 0 -3 -9 4 -14 11 -15 17 -6 34 20 38 33 47 36 25 2 -11 -4
-28 -12 -37z m591 -78 c-3 -10 -5 -2 -5 17 0 19 2 27 5 18 2 -10 2 -26 0 -35z
m-967 -421 c0 -39 -2 -43 -20 -37 -24 8 -24 6 -8 -132 6 -57 15 -103 20 -103
4 0 8 -18 8 -40 0 -38 2 -40 30 -40 27 0 30 -3 30 -32 0 -18 3 -42 6 -53 5
-19 0 -20 -63 -19 -38 1 -67 5 -66 11 4 20 -60 10 -83 -14 -17 -17 -34 -23
-69 -23 -41 0 -45 2 -45 24 0 13 -4 26 -9 28 -4 1 -11 25 -13 51 -4 35 -3 46
5 38 6 -6 19 -11 29 -11 14 0 18 8 18 40 l0 40 40 0 40 0 0 40 c0 36 3 40 25
40 23 0 25 4 25 40 0 36 -2 40 -25 40 -22 0 -25 4 -25 40 0 29 4 40 15 40 11
0 15 11 15 40 0 45 17 55 22 13 l4 -28 14 28 c7 15 16 27 20 27 3 0 16 -19 29
-42 l22 -43 -4 53 c-2 32 -1 48 4 40 5 -7 9 -32 9 -56z m90 33 c0 -8 -2 -15
-4 -15 -2 0 -6 7 -10 15 -3 8 -1 15 4 15 6 0 10 -7 10 -15z m338 -27 c-2 -23
-8 -43 -13 -45 -6 -2 -9 15 -7 42 2 25 8 45 14 45 5 0 8 -19 6 -42z m-58 -82
c0 -29 -6 -48 -17 -57 -15 -13 -16 -11 -10 11 4 14 7 40 7 58 0 17 5 32 10 32
6 0 10 -20 10 -44z m-553 -28 c-3 -8 -6 -5 -6 6 -1 11 2 17 5 13 3 -3 4 -12 1
-19z m190 0 c-3 -8 -6 -5 -6 6 -1 11 2 17 5 13 3 -3 4 -12 1 -19z m221 -17
c-7 -11 -16 -17 -20 -15 -14 9 -9 22 10 27 9 3 18 5 20 6 1 0 -3 -8 -10 -18z
m-195 -98 c-4 -36 -10 -53 -19 -53 -10 0 -14 13 -14 40 0 22 5 40 10 40 6 0
10 10 10 22 0 13 4 18 9 13 5 -6 7 -34 4 -62z m127 12 c7 -9 8 -15 2 -15 -5 0
-12 7 -16 15 -3 8 -4 15 -2 15 2 0 9 -7 16 -15z m-423 -97 c-3 -7 -5 -2 -5 12
0 14 2 19 5 13 2 -7 2 -19 0 -25z m410 -102 c-3 -26 -4 -25 -5 11 -1 23 -7 43
-14 45 -7 3 -9 11 -4 24 7 16 10 15 18 -15 5 -18 7 -47 5 -65z m-20 -32 c-3
-3 -12 -4 -19 -1 -8 3 -5 6 6 6 11 1 17 -2 13 -5z m60 -16 c-3 -8 -6 -5 -6 6
-1 11 2 17 5 13 3 -3 4 -12 1 -19z m-105 -76 c-7 -2 -12 -13 -12 -24 0 -12 -3
-19 -6 -16 -3 3 -2 23 2 43 6 32 8 35 17 19 7 -13 7 -19 -1 -22z m-502 -22 c0
-22 -4 -40 -10 -40 -5 0 -10 18 -10 40 0 22 5 40 10 40 6 0 10 -18 10 -40z"/>
<path d="M2565 5731 c-3 -5 4 -13 16 -16 23 -8 34 -1 24 14 -8 13 -32 14 -40
2z"/>
<path d="M3591 1854 c0 -11 3 -14 6 -6 3 7 2 16 -1 19 -3 4 -6 -2 -5 -13z"/>
<path d="M3200 600 c0 -22 5 -40 10 -40 6 0 10 -18 10 -40 0 -22 5 -40 10 -40
6 0 10 18 10 40 0 22 -4 40 -10 40 -5 0 -10 18 -10 40 0 22 -4 40 -10 40 -5 0
-10 -18 -10 -40z"/>
<path d="M668 5363 c-20 -5 -24 -28 -8 -38 6 -3 13 2 17 12 4 10 11 21 17 25
12 8 2 9 -26 1z"/>
<path d="M800 5135 c0 -9 -9 -15 -22 -15 -19 0 -20 2 -8 10 11 7 8 10 -16 10
-42 0 -60 -21 -42 -49 9 -15 23 -21 50 -21 26 0 38 -5 41 -17 3 -10 5 1 6 25
1 36 4 42 22 42 18 0 19 2 9 15 -7 8 -19 15 -26 15 -8 0 -14 -7 -14 -15z"/>
<path d="M872 5085 c-1 -41 16 -99 17 -62 1 9 6 17 11 17 14 0 12 16 -4 32 -8
8 -16 23 -19 34 -2 10 -5 1 -5 -21z"/>
<path d="M1111 4974 c0 -11 3 -14 6 -6 3 7 2 16 -1 19 -3 4 -6 -2 -5 -13z"/>
<path d="M980 3746 c0 -2 16 -6 35 -8 19 -2 35 0 35 4 0 4 -16 8 -35 8 -19 0
-35 -2 -35 -4z"/>
<path d="M1208 3733 c7 -3 16 -2 19 1 4 3 -2 6 -13 5 -11 0 -14 -3 -6 -6z"/>
<path d="M1258 3733 c7 -3 16 -2 19 1 4 3 -2 6 -13 5 -11 0 -14 -3 -6 -6z"/>
<path d="M1120 3710 c0 -13 30 -13 50 0 11 7 7 10 -17 10 -18 0 -33 -4 -33
-10z"/>
<path d="M1000 3700 l-45 -7 42 -1 c23 -1 45 3 48 8 3 6 5 9 3 8 -2 0 -23 -4
-48 -8z"/>
<path d="M1502 3480 c0 -14 2 -19 5 -12 2 6 2 18 0 25 -3 6 -5 1 -5 -13z"/>
<path d="M2817 3258 c-7 -25 0 -41 14 -33 12 8 12 55 0 55 -5 0 -11 -10 -14
-22z"/>
<path d="M2648 3228 c-6 -56 -7 -62 -7 -196 0 -24 -5 -50 -11 -57 -9 -10 -7
-20 5 -39 20 -31 16 -30 51 -11 16 8 45 15 64 15 33 1 34 1 16 15 -11 8 -30
15 -43 15 -13 0 -23 5 -23 10 0 6 6 10 13 10 6 0 1 6 -13 13 -31 16 -38 46
-14 64 10 7 45 13 78 14 69 0 51 17 -19 18 -46 1 -71 14 -60 31 4 6 -1 20 -10
30 -11 12 -16 29 -13 45 3 14 1 28 -3 31 -5 3 -10 -1 -11 -8z"/>
<path d="M2881 3144 c0 -11 3 -14 6 -6 3 7 2 16 -1 19 -3 4 -6 -2 -5 -13z"/>
<path d="M2811 3134 c0 -11 3 -14 6 -6 3 7 2 16 -1 19 -3 4 -6 -2 -5 -13z"/>
<path d="M2888 3083 c6 -2 18 -2 25 0 6 3 1 5 -13 5 -14 0 -19 -2 -12 -5z"/>
<path d="M2861 2990 c0 -29 1 -32 10 -17 7 11 7 23 0 35 -9 14 -10 11 -10 -18z"/>
<path d="M2780 2990 c0 -5 5 -10 10 -10 6 0 10 5 10 10 0 6 -4 10 -10 10 -5 0
-10 -4 -10 -10z"/>
<path d="M583 2910 c3 -25 10 -63 16 -85 8 -34 9 -28 4 35 -3 41 -10 80 -15
85 -7 7 -8 -6 -5 -35z"/>
<path d="M2730 2820 c0 -5 9 -10 21 -10 11 0 17 5 14 10 -3 6 -13 10 -21 10
-8 0 -14 -4 -14 -10z"/>
<path d="M612 2728 c0 -21 4 -38 9 -38 11 0 11 28 0 55 -7 15 -9 11 -9 -17z"/>
<path d="M2000 2635 c0 -61 9 -69 28 -26 11 26 11 33 -4 55 -9 15 -18 26 -20
26 -2 0 -4 -25 -4 -55z"/>
<path d="M632 2610 c0 -14 2 -19 5 -12 2 6 2 18 0 25 -3 6 -5 1 -5 -13z"/>
<path d="M651 2514 c0 -11 3 -14 6 -6 3 7 2 16 -1 19 -3 4 -6 -2 -5 -13z"/>
<path d="M692 2320 c0 -14 2 -19 5 -12 2 6 2 18 0 25 -3 6 -5 1 -5 -13z"/>
<path d="M702 2250 c0 -14 2 -19 5 -12 2 6 2 18 0 25 -3 6 -5 1 -5 -13z"/>
<path d="M2515 2245 c-16 -7 -25 -14 -18 -14 6 -1 27 -23 47 -51 20 -27 40
-50 45 -50 4 0 4 23 -1 51 -5 28 -7 57 -4 65 7 18 -29 18 -69 -1z"/>
<path d="M2313 2203 c9 -2 25 -2 35 0 9 3 1 5 -18 5 -19 0 -27 -2 -17 -5z"/>
<path d="M721 2134 c0 -11 3 -14 6 -6 3 7 2 16 -1 19 -3 4 -6 -2 -5 -13z"/>
<path d="M2640 1710 c0 -5 5 -10 10 -10 6 0 10 5 10 10 0 6 -4 10 -10 10 -5 0
-10 -4 -10 -10z"/>
<path d="M2244 1636 c-22 -17 -11 -35 13 -20 19 12 29 34 16 34 -5 0 -18 -6
-29 -14z"/>
<path d="M2157 1303 c-4 -3 -7 -11 -7 -17 0 -6 5 -5 12 2 6 6 9 14 7 17 -3 3
-9 2 -12 -2z"/>
<path d="M981 1264 c0 -11 3 -14 6 -6 3 7 2 16 -1 19 -3 4 -6 -2 -5 -13z"/>
<path d="M986 1205 c-3 -8 -1 -15 4 -15 5 0 11 -10 13 -22 3 -14 5 -9 6 15 1
37 -12 50 -23 22z"/>
<path d="M2090 1160 c0 -5 5 -10 10 -10 6 0 10 5 10 10 0 6 -4 10 -10 10 -5 0
-10 -4 -10 -10z"/>
<path d="M1840 882 c0 -18 -6 -22 -36 -22 -39 0 -67 -12 -101 -43 -13 -11 -23
-15 -23 -9 0 7 -5 12 -11 12 -6 0 -8 -7 -5 -15 3 -8 9 -23 13 -32 5 -14 0 -13
-25 6 -45 31 -40 19 14 -39 47 -51 73 -65 55 -31 -6 10 -8 21 -4 24 7 8 27
-12 36 -36 4 -10 12 -15 18 -12 18 12 68 86 65 98 -1 7 -1 9 1 5 10 -18 23 -6
23 22 0 17 5 30 10 30 17 0 11 26 -10 45 -19 18 -20 17 -20 -3z"/>
<path d="M1143 755 c0 -22 2 -30 4 -17 2 12 2 30 0 40 -3 9 -5 -1 -4 -23z"/>
<path d="M1115 650 c-9 -14 5 -119 16 -126 5 -3 9 24 9 60 0 61 -11 89 -25 66z"/>
<path d="M1395 550 c-75 -29 -108 -80 -52 -80 20 -1 21 -1 4 -11 -11 -6 -17
-20 -15 -32 1 -12 -9 -37 -22 -55 -15 -21 -24 -44 -22 -61 2 -16 -3 -33 -12
-40 -9 -7 -13 -17 -10 -22 3 -5 -1 -9 -9 -9 -8 0 -18 -7 -21 -16 -4 -9 -13
-14 -21 -10 -23 8 -29 -17 -17 -71 6 -27 14 -69 17 -96 4 -32 11 -47 21 -47
11 0 13 6 9 21 -7 22 12 106 26 115 5 3 6 -2 3 -11 -5 -13 -2 -14 21 -5 15 6
37 17 48 25 47 33 76 4 42 -41 -8 -10 -15 -38 -15 -61 0 -41 2 -43 29 -43 28
0 28 2 35 66 5 45 3 71 -5 80 -10 12 -7 20 14 42 16 17 27 39 27 55 0 15 7 30
15 33 8 4 15 12 15 20 0 7 7 17 17 22 9 5 17 19 18 30 0 11 16 34 33 52 24 23
32 40 30 61 -1 16 -7 29 -13 29 -6 0 -32 18 -59 40 -55 45 -62 46 -131 20z
m-35 -120 c0 -5 -5 -10 -11 -10 -5 0 -7 5 -4 10 3 6 8 10 11 10 2 0 4 -4 4
-10z m-99 -227 c-12 -20 -14 -14 -5 12 4 9 9 14 11 11 3 -2 0 -13 -6 -23z"/>
<path d="M1869 553 c13 -23 77 -93 85 -93 17 0 1 29 -36 67 -43 44 -66 56 -49
26z"/>
<path d="M5052 388 c-6 -24 -16 -65 -22 -93 -15 -70 -28 -103 -65 -155 -25
-37 -31 -53 -27 -83 5 -44 25 -45 30 -1 6 50 22 52 22 3 0 -35 4 -46 16 -46
23 0 31 29 54 187 21 147 25 230 12 230 -4 0 -13 -19 -20 -42z"/>
<path d="M2625 170 c-3 -5 -1 -10 4 -10 6 0 11 5 11 10 0 6 -2 10 -4 10 -3 0
-8 -4 -11 -10z"/>
<path d="M2438 82 c-24 -2 -38 -8 -38 -17 0 -8 -7 -11 -18 -8 -11 2 -34 -5
-53 -16 -19 -12 -42 -21 -51 -21 -9 0 -20 -4 -23 -10 -4 -6 40 -9 120 -9 117
0 125 1 125 20 0 10 -4 19 -9 19 -5 0 -11 10 -13 23 -3 19 -8 22 -40 19z"/>
<path d="M1111 14 c0 -11 3 -14 6 -6 3 7 2 16 -1 19 -3 4 -6 -2 -5 -13z"/>
</g>
</svg>
